<svg xmlns="http://www.w3.org/2000/svg" viewBox="0 0 800 600" width="100%" height="100%">
    <defs>
        <!-- Gradients -->
        <radialGradient id="bg-glow" cx="50%" cy="50%" r="70%">
            <stop offset="0%" stop-color="#1E293B"/>
            <stop offset="100%" stop-color="#0F172A"/>
        </radialGradient>
        
        <linearGradient id="lip-upper" x1="0%" y1="0%" x2="0%" y2="100%">
            <stop offset="0%" stop-color="#E07A5F"/>
            <stop offset="60%" stop-color="#C85A32"/>
            <stop offset="100%" stop-color="#963B18"/>
        </linearGradient>

        <linearGradient id="lip-lower" x1="0%" y1="0%" x2="0%" y2="100%">
            <stop offset="0%" stop-color="#963B18"/>
            <stop offset="40%" stop-color="#D96B43"/>
            <stop offset="100%" stop-color="#E07A5F"/>
        </linearGradient>

        <linearGradient id="gum-pink" x1="0%" y1="0%" x2="0%" y2="100%">
            <stop offset="0%" stop-color="#EE8594"/>
            <stop offset="70%" stop-color="#E25B6E"/>
            <stop offset="100%" stop-color="#C23B4E"/>
        </linearGradient>

        <linearGradient id="tooth-yellowish" x1="0%" y1="0%" x2="0%" y2="100%">
            <stop offset="0%" stop-color="#FFFDF5"/>
            <stop offset="50%" stop-color="#F7EED3"/>
            <stop offset="100%" stop-color="#E6D7B0"/>
        </linearGradient>

        <linearGradient id="tooth-bright-yellow" x1="0%" y1="0%" x2="0%" y2="100%">
            <stop offset="0%" stop-color="#FFFDF7"/>
            <stop offset="60%" stop-color="#F5E8C4"/>
            <stop offset="100%" stop-color="#DFC890"/>
        </linearGradient>

        <linearGradient id="tooth-shadowed" x1="0%" y1="0%" x2="0%" y2="100%">
            <stop offset="0%" stop-color="#EFE8D5"/>
            <stop offset="70%" stop-color="#DDD0B0"/>
            <stop offset="100%" stop-color="#C2B28F"/>
        </linearGradient>

        <linearGradient id="tooth-white" x1="0%" y1="0%" x2="0%" y2="100%">
            <stop offset="0%" stop-color="#FFFFFF"/>
            <stop offset="60%" stop-color="#F1F5F9"/>
            <stop offset="100%" stop-color="#E2E8F0"/>
        </linearGradient>

        <linearGradient id="tooth-ultra-white" x1="0%" y1="0%" x2="0%" y2="100%">
            <stop offset="0%" stop-color="#FFFFFF"/>
            <stop offset="50%" stop-color="#F8FAFC"/>
            <stop offset="100%" stop-color="#E0F2FE"/>
        </linearGradient>
        
        <filter id="shadow" x="-10%" y="-10%" width="120%" height="120%">
            <feDropShadow dx="0" dy="4" stdDeviation="6" flood-color="#000000" flood-opacity="0.4"/>
        </filter>
    </defs>

    <!-- Background -->
    <rect width="800" height="600" fill="url(#bg-glow)"/>

    <!-- Clinical Face / Mouth Frame -->
    <!-- Dark Inner Oral Cavity -->
    <ellipse cx="400" cy="310" rx="260" ry="140" fill="#1C0A0C"/>

    <!-- Gums Upper Arch -->
    <path d="M 140 300 Q 400 130 660 300 Q 400 180 140 300 Z" fill="url(#gum-pink)" filter="url(#shadow)"/>

    <!-- Teeth Content -->
    
            <!-- Gap BEFORE: Prominent 35px space between Central Incisors -->
            <!-- Upper Left Lateral -->
            <path d="M 255 265 Q 285 210 310 265 Q 318 335 270 335 Z" fill="url(#tooth-yellowish)" stroke="#D4C5A9" stroke-width="1.5"/>
            <!-- Upper Left Central (Shifted Left, Gap on Right) -->
            <path d="M 308 255 Q 338 198 368 255 Q 370 340 315 340 Z" fill="url(#tooth-yellowish)" stroke="#D4C5A9" stroke-width="2"/>
            
            <!-- THE GAP (Dark Cavity Space x=370 to x=430) -->
            <path d="M 368 255 Q 400 240 432 255 L 430 340 Q 400 350 370 340 Z" fill="#200B0E"/>
            <text x="400" y="305" font-family="sans-serif" font-size="16" font-weight="bold" fill="#F87171" text-anchor="middle">GAP</text>
            <line x1="375" y1="315" x2="425" y2="315" stroke="#F87171" stroke-width="2" stroke-dasharray="3,3"/>

            <!-- Upper Right Central (Shifted Right) -->
            <path d="M 432 255 Q 462 198 492 255 Q 485 340 430 340 Z" fill="url(#tooth-yellowish)" stroke="#D4C5A9" stroke-width="2"/>
            <!-- Upper Right Lateral -->
            <path d="M 490 265 Q 515 210 545 265 Q 530 335 482 335 Z" fill="url(#tooth-yellowish)" stroke="#D4C5A9" stroke-width="1.5"/>
            

    <!-- Upper Lip Contour -->
    <path d="M 120 290 Q 250 200 400 230 Q 550 200 680 290 Q 540 160 400 180 Q 260 160 120 290 Z" fill="url(#lip-upper)" filter="url(#shadow)"/>

    <!-- Lower Lip Contour -->
    <path d="M 130 310 Q 400 470 670 310 Q 540 430 400 420 Q 260 430 130 310 Z" fill="url(#lip-lower)" filter="url(#shadow)"/>

    <!-- Photorealistic Dental Specular Highlight overlay on Lips -->
    <path d="M 330 205 Q 400 220 470 205 Q 400 212 330 205 Z" fill="#FFFFFF" opacity="0.3"/>
    <path d="M 320 425 Q 400 435 480 425 Q 400 429 320 425 Z" fill="#FFFFFF" opacity="0.25"/>

    <!-- Case Tag Overlay -->
    <rect x="30" y="30" width="340" height="40" rx="10" fill="#0F172A" opacity="0.85" stroke="#334155"/>
    <text x="50" y="55" font-family="system-ui, sans-serif" font-size="14" font-weight="600" fill="#F8FAFC">BEFORE: Front Tooth Gap (Diastema)</text>
</svg>